<svg width="170" height="42" viewBox="0 0 170 42" fill="none" xmlns="http://www.w3.org/2000/svg">
<path d="M21 21.8401L42.0001 21.4202V20.5801L21 20.1602V21.8401Z" fill="#FC5842"/>
<path d="M21.4202 10.4999H20.5801L20.1602 0H21.8401L21.4202 10.4999Z" fill="white"/>
<path d="M20.5801 31.5H21.4202L21.8401 41.9999H20.1602L20.5801 31.5Z" fill="white"/>
<path d="M10.4999 20.5801V21.4202L0 21.8401V20.1602L10.4999 20.5801Z" fill="white"/>
<path d="M28.7218 13.8722L28.1279 13.2783L35.2555 5.55664L36.4433 6.74467L28.7218 13.8722Z" fill="white"/>
<path d="M13.2783 28.1279L13.8722 28.7218L6.74467 36.4435L5.55664 35.2555L13.2783 28.1279Z" fill="white"/>
<path d="M28.1279 28.7218L28.7218 28.1279L36.4433 35.2555L35.2555 36.4435L28.1279 28.7218Z" fill="white"/>
<path d="M13.8722 13.2781L13.2783 13.872L5.55664 6.74446L6.74467 5.55664L13.8722 13.2781Z" fill="white"/>
<path d="M17.3698 11.1387L16.5937 11.4602L12.1875 1.92028L13.7396 1.27734L17.3698 11.1387Z" fill="white"/>
<path d="M24.6304 30.8615L25.4064 30.54L29.8126 40.0799L28.2604 40.7229L24.6304 30.8615Z" fill="white"/>
<path d="M11.1387 24.6299L11.4602 25.4059L1.92028 29.8122L1.27734 28.2601L11.1387 24.6299Z" fill="white"/>
<path d="M25.4064 11.4602L24.6304 11.1387L28.2604 1.27734L29.8126 1.92028L25.4064 11.4602Z" fill="white"/>
<path d="M16.5937 30.54L17.3698 30.8615L13.7396 40.7229L12.1875 40.0799L16.5937 30.54Z" fill="white"/>
<path d="M30.54 25.4059L30.8613 24.6299L40.7229 28.2601L40.0799 29.8122L30.54 25.4059Z" fill="white"/>
<path d="M11.4602 16.5937L11.1387 17.3698L1.27734 13.7396L1.92028 12.1875L11.4602 16.5937Z" fill="white"/>
<path d="M19.3632 10.6194L18.5394 10.7832L16.0791 0.566983L17.7269 0.239258L19.3632 10.6194Z" fill="white"/>
<path d="M22.6362 31.3796L23.46 31.2158L25.9206 41.432L24.2728 41.7598L22.6362 31.3796Z" fill="white"/>
<path d="M10.6199 22.6367L10.7837 23.4607L0.567472 25.9211L0.239746 24.2733L10.6199 22.6367Z" fill="white"/>
<path d="M27.1828 12.5026L26.4844 12.036L31.9685 3.07227L33.3653 4.00558L27.1828 12.5026Z" fill="white"/>
<path d="M14.817 29.4971L15.5155 29.9639L10.0311 38.9277L8.63428 37.9941L14.817 29.4971Z" fill="white"/>
<path d="M29.4971 27.1828L29.9637 26.4844L38.9275 31.9687L37.9941 33.3656L29.4971 27.1828Z" fill="white"/>
<path d="M12.5027 14.8175L12.036 15.5159L3.07227 10.0316L4.00579 8.63477L12.5027 14.8175Z" fill="white"/>
<path d="M15.5155 12.036L14.817 12.5026L8.63428 4.00558L10.0311 3.07227L15.5155 12.036Z" fill="white"/>
<path d="M26.4844 29.9639L27.1828 29.4971L33.3653 37.9941L31.9685 38.9277L26.4844 29.9639Z" fill="white"/>
<path d="M29.9637 15.5159L29.4971 14.8175L37.9941 8.63477L38.9275 10.0318L29.9637 15.5159Z" fill="white"/>
<path d="M12.036 26.4844L12.5027 27.1828L4.00558 33.3656L3.07227 31.9687L12.036 26.4844Z" fill="white"/>
<path d="M23.46 10.7832L22.6362 10.6194L24.2728 0.239258L25.9206 0.566983L23.46 10.7832Z" fill="white"/>
<path d="M18.5394 31.2158L19.3632 31.3796L17.7269 41.7598L16.0791 41.432L18.5394 31.2158Z" fill="white"/>
<path d="M31.2163 23.4607L31.3803 22.6367L41.7605 24.2733L41.4327 25.9211L31.2163 23.4607Z" fill="white"/>
<path d="M10.7837 18.5394L10.6199 19.3634L0.239746 17.7269L0.567472 16.0791L10.7837 18.5394Z" fill="white"/>
<path d="M76.1538 26.0118C78.5194 27.9528 80.804 28.9232 83.0077 28.9232C84.1801 28.9232 85.1102 28.6705 85.798 28.165C86.1275 27.9338 86.3943 27.6243 86.5743 27.2643C86.7543 26.9042 86.8418 26.5051 86.829 26.1028C86.842 25.5758 86.6703 25.0609 86.3438 24.647C86.0202 24.2429 85.4036 23.8082 84.4939 23.343L80.7939 21.5841C79.1562 20.8159 78.0088 19.9869 77.3518 19.0971C76.6833 18.1723 76.3371 17.0535 76.3662 15.9128C76.3426 15.0095 76.5272 14.1129 76.9059 13.2924C77.2846 12.472 77.847 11.7497 78.5498 11.1817C79.2361 10.6257 80.0241 10.2085 80.8697 9.95346C81.7687 9.67759 82.7043 9.53955 83.6447 9.54405C84.2041 9.54533 84.7622 9.59606 85.3127 9.69566C85.8655 9.79343 86.4085 9.94061 86.9351 10.1354C87.4407 10.3229 87.9281 10.5564 88.391 10.833C88.8272 11.0925 89.2384 11.392 89.6192 11.7276V15.9734C88.7516 15.0887 87.7418 14.3557 86.6319 13.805C85.6584 13.3108 84.5846 13.0462 83.4929 13.0316C82.5225 13.0316 81.7391 13.2591 81.1427 13.714C80.8533 13.9288 80.6206 14.2109 80.4647 14.5359C80.3088 14.8609 80.2345 15.219 80.2481 15.5792C80.2407 16.0632 80.4015 16.5348 80.703 16.9136C81.0062 17.2979 81.552 17.672 82.3405 18.0357L85.798 19.6431C86.5984 20.0069 87.369 20.4328 88.1028 20.9169C88.6748 21.2919 89.1862 21.7521 89.6192 22.2815C89.9941 22.7499 90.2771 23.2849 90.4532 23.8585C90.631 24.4692 90.7179 25.1028 90.711 25.7388C90.7338 26.6989 90.5302 27.6509 90.1166 28.5177C89.703 29.3844 89.091 30.1416 88.3302 30.7277C87.5862 31.2973 86.743 31.724 85.8435 31.9863C84.894 32.2706 83.908 32.4136 82.9169 32.4109C81.6586 32.4134 80.4086 32.2084 79.217 31.8043C78.112 31.4466 77.0761 30.903 76.1538 30.1969L76.1538 26.0118Z" fill="white"/>
<path d="M92.4861 20.9776C92.4768 19.4461 92.7813 17.9289 93.3807 16.5195C94.5303 13.7779 96.7075 11.5952 99.4462 10.4388C100.85 9.83861 102.362 9.53409 103.889 9.54419C104.908 9.54009 105.923 9.67267 106.907 9.9384C107.859 10.1983 108.772 10.586 109.621 11.0909V15.8219C108.942 15.0655 108.103 14.4698 107.164 14.0781C106.156 13.6563 105.073 13.4447 103.98 13.4563C102.971 13.4482 101.97 13.6442 101.038 14.0325C100.155 14.3987 99.3555 14.9404 98.6879 15.6249C98.022 16.3158 97.4968 17.1294 97.1413 18.0207C96.7633 18.9603 96.5726 19.9648 96.5801 20.9776C96.5716 21.9856 96.7623 22.9853 97.1412 23.9193C97.5009 24.8075 98.0316 25.6164 98.7032 26.2999C99.3762 26.9815 100.174 27.5272 101.053 27.9073C101.977 28.3065 102.974 28.508 103.98 28.4987C105.073 28.5106 106.156 28.2991 107.164 27.8771C108.103 27.4857 108.942 26.8899 109.621 26.1331V30.8643C108.773 31.3696 107.859 31.7573 106.907 32.0167C105.923 32.2824 104.908 32.4151 103.889 32.411C102.361 32.4211 100.847 32.1111 99.4462 31.5011C98.0945 30.9172 96.865 30.0839 95.8221 29.0447C94.7841 28.0038 93.9553 26.7735 93.3807 25.4205C92.7803 24.0168 92.4758 22.5043 92.4861 20.9776Z" fill="white"/>
<path d="M123.083 9.54434C124.615 9.53134 126.133 9.83594 127.541 10.4389C128.885 11.0144 130.105 11.8433 131.135 12.8803C132.165 13.9245 132.979 15.1611 133.531 16.5196C134.111 17.9339 134.405 19.4492 134.395 20.9778C134.405 22.503 134.106 24.0144 133.516 25.4207C132.953 26.7693 132.14 27.999 131.12 29.0448C130.091 30.0877 128.871 30.9218 127.526 31.5012C126.122 32.1016 124.61 32.4112 123.083 32.4112C121.556 32.4112 120.044 32.1016 118.64 31.5012C117.295 30.9221 116.075 30.0879 115.046 29.0448C114.026 27.9993 113.213 26.7695 112.65 25.4207C111.478 22.5695 111.478 19.3708 112.65 16.5196C113.21 15.1649 114.023 13.9297 115.046 12.8803C116.094 11.8142 117.345 10.9695 118.726 10.3964C120.107 9.82333 121.588 9.53357 123.083 9.54434ZM123.083 28.6202C124.093 28.6336 125.093 28.4211 126.01 27.9985C126.87 27.5979 127.643 27.031 128.284 26.3305C128.928 25.6223 129.432 24.7992 129.77 23.9043C130.127 22.97 130.307 21.9777 130.301 20.9778C130.306 19.973 130.126 18.9759 129.77 18.036C129.434 17.1354 128.93 16.3069 128.284 15.5947C127.645 14.8959 126.872 14.3336 126.01 13.9419C125.086 13.5417 124.09 13.3353 123.083 13.3353C122.076 13.3353 121.08 13.5417 120.156 13.9419C119.294 14.3336 118.521 14.8958 117.882 15.5947C117.236 16.3067 116.732 17.1353 116.396 18.036C116.04 18.9758 115.86 19.973 115.865 20.9778C115.859 21.9777 116.039 22.97 116.396 23.9043C116.734 24.7994 117.238 25.6225 117.882 26.3305C118.526 27.0337 119.305 27.6008 120.172 27.9985C121.084 28.4181 122.079 28.6304 123.083 28.6202Z" fill="white"/>
<path d="M137.273 32.047V9.90813H143.521C144.691 9.89346 145.857 10.0571 146.978 10.3933C147.935 10.6785 148.831 11.1415 149.616 11.7581C150.337 12.3354 150.914 13.0726 151.3 13.9113C151.704 14.8066 151.906 15.7799 151.891 16.762C151.929 18.0939 151.535 19.4024 150.769 20.4924C149.953 21.5732 148.834 22.3863 147.554 22.8275L154.438 32.047H149.677L143.339 23.4947H141.367V32.047H137.273ZM141.367 20.2194H143.521C144.814 20.2194 145.841 19.9161 146.599 19.3096C147.357 18.703 147.736 17.8538 147.736 16.762C147.736 15.6703 147.357 14.816 146.599 14.1993C145.841 13.5829 144.815 13.2746 143.521 13.2745H141.367V20.2194Z" fill="white"/>
<path d="M156.207 9.9082H169.854V13.3048H160.21V19.0367H169.096V22.4636H160.21V28.6503H169.915V32.0471H156.207V9.9082Z" fill="white"/>
<path d="M63.2819 9.5887C65.1937 9.56496 67.0758 10.063 68.7256 11.0293C70.36 11.9968 71.7056 13.3843 72.6227 15.0476L69.1958 17.1098C68.6136 16.0057 67.7506 15.0747 66.6938 14.4106C65.6719 13.7694 64.4883 13.4328 63.2819 13.4402C62.2838 13.4291 61.2954 13.6361 60.3857 14.0468C59.5237 14.4385 58.75 15.0007 58.1112 15.6996C57.4677 16.4077 56.9635 17.2308 56.625 18.1258C56.2705 19.05 56.0905 20.0321 56.0944 21.0221C56.0916 22.0182 56.2768 23.006 56.6402 23.9334C56.989 24.8392 57.5032 25.6723 58.1566 26.39C58.8036 27.098 59.5811 27.6746 60.4463 28.0883C61.3506 28.5185 62.3412 28.7363 63.3425 28.7251C64.9802 28.7251 66.3652 28.2753 67.4974 27.3756C68.6421 26.4557 69.426 25.1618 69.7113 23.7212H63.5853V20.3245H73.9571C74.0895 21.9251 73.9406 23.5366 73.5173 25.0858C73.1207 26.5086 72.4109 27.8246 71.4399 28.9375C70.4746 30.0862 69.2473 30.9859 67.8614 31.5607C66.4106 32.164 64.853 32.4684 63.2819 32.4555C61.7584 32.4665 60.2498 32.1565 58.8542 31.5455C57.5149 30.9637 56.3 30.1297 55.2756 29.0891C54.2548 28.0436 53.4418 26.8138 52.8797 25.465C52.2889 24.0588 51.9898 22.5473 52.0003 21.0221C51.9801 18.0038 53.1516 15.0994 55.2604 12.9398C56.2869 11.8947 57.5077 11.0602 58.8542 10.4833C60.2524 9.88224 61.76 9.57763 63.2819 9.5887Z" fill="white"/>
</svg>
